# xmcd
# Track frame offsets:
# 150
# 18851
# 34309
# 54980
# 67704
# 88197
# 101522
# 119134
# 135503
# 154706
#
# Disc length: 2300 seconds
# Revision: 0
# Processed by: cddbd v1.5.2PL0 Copyright (c) Steve Scherf et al.
# Submitted via: VisiTrax 2.11.3.279 - For more info visit www.synapsa.com
#
DISCID=7b08fa0a
DTITLE=Keb' Mo' - Bluesamericana
DYEAR=1900
DGENRE=
TTITLE0=Do It Right
TTITLE1=For Better or Worse
TTITLE2=I'm Gonna Be Your Man
TTITLE3=More for Your Money
TTITLE4=Move
TTITLE5=Old Me Better
TTITLE6=So Long Goodbye
TTITLE7=Somebody Hurt You
TTITLE8=That's Alright
TTITLE9=The Worst Is yet to Come
EXTD=
EXTT0=
EXTT1=
EXTT2=
EXTT3=
EXTT4=
EXTT5=
EXTT6=
EXTT7=
EXTT8=
EXTT9=
PLAYORDER=
